<svg width="32" height="32" viewBox="0 0 32 32" fill="none" xmlns="http://www.w3.org/2000/svg">
  <!-- Optimized for light mode - Purple shield with white lock -->
  <rect width="32" height="32" rx="7" fill="#8B5CF6"/>
  
  <!-- Shield -->
  <path d="M16 6C16 6 11.5 7.5 11.5 7.5C11.5 7.5 11.5 14 11.5 16.5C11.5 19.5 13 22 16 25C19 22 20.5 19.5 20.5 16.5C20.5 14 20.5 7.5 20.5 7.5C20.5 7.5 16 6 16 6Z" fill="white"/>
  
  <!-- Lock -->
  <rect x="14" y="15" width="4" height="5" rx="0.5" fill="#8B5CF6"/>
  <path d="M14.5 15V13C14.5 12.1716 15.1716 11.5 16 11.5C16.8284 11.5 17.5 12.1716 17.5 13V15" stroke="#8B5CF6" stroke-width="1" fill="none"/>
  <circle cx="16" cy="16.5" r="0.5" fill="white" opacity="0.5"/>
</svg>
