<svg width="180" height="180" viewBox="0 0 180 180" fill="none" xmlns="http://www.w3.org/2000/svg">
  <style>
    @media (prefers-color-scheme: light) {
      .background { fill: #8B5CF6; }
      .shield { fill: white; }
      .lock { fill: #8B5CF6; }
    }
    @media (prefers-color-scheme: dark) {
      .background { fill: #1F2937; }
      .shield { fill: #8B5CF6; }
      .lock { fill: white; }
    }
  </style>
  
  <!-- Background -->
  <rect class="background" width="180" height="180" rx="40"/>
  
  <!-- Shield -->
  <path class="shield" d="M90 35C90 35 65 42 65 42C65 42 65 80 65 95C65 115 75 130 90 145C105 130 115 115 115 95C115 80 115 42 115 42C115 42 90 35 90 35Z" />
  
  <!-- Lock Body -->
  <rect class="lock" x="78" y="85" width="24" height="28" rx="3"/>
  
  <!-- Lock Shackle -->
  <path class="lock" d="M82 85V75C82 70.5817 85.5817 67 90 67C94.4183 67 98 70.5817 98 75V85" stroke-width="4" stroke="currentColor" fill="none"/>
  
  <!-- Keyhole -->
  <circle cx="90" cy="95" r="3" fill="#1F2937" opacity="0.3"/>
  <rect x="88.5" y="95" width="3" height="8" rx="1.5" fill="#1F2937" opacity="0.3"/>
</svg>